<svg aria-hidden="true" style="position: absolute; width: 0; height: 0; overflow: hidden;" version="1.1" xmlns="http://www.w3.org/2000/svg" xmlns:xlink="http://www.w3.org/1999/xlink">
<defs>
<symbol id="google-icon" viewBox="0 0 32 32">
<path fill="#00ac47" style="fill: var(--color1, #00ac47)" d="M23.75 16c0 0.002 0 0.003 0 0.005 0 4.277-3.467 7.745-7.745 7.745-3.337 0-6.181-2.111-7.27-5.070l-0.017-0.054-4.433 3.546c2.265 4.241 6.662 7.078 11.721 7.078 7.314 0 13.244-5.93 13.244-13.244 0-0.002 0-0.004 0-0.006v0z"></path>
<path fill="#4285f4" style="fill: var(--color2, #4285f4)" d="M23.75 16c-0.002 2.589-1.275 4.88-3.229 6.283l-0.023 0.016 4.382 3.506c2.686-2.425 4.367-5.918 4.369-9.804v-0z"></path>
<path fill="#ffba00" style="fill: var(--color3, #ffba00)" d="M8.25 16c0.002-0.943 0.173-1.845 0.485-2.679l-0.017 0.053-4.433-3.546c-0.967 1.788-1.535 3.914-1.535 6.172s0.568 4.384 1.569 6.242l-0.035-0.070 4.433-3.546c-0.294-0.781-0.466-1.683-0.468-2.625v-0.001z"></path>
<path fill="#2ab2db" style="fill: var(--color4, #2ab2db)" d="M8.718 13.374v0 0 0z"></path>
<path fill="#ea4435" style="fill: var(--color5, #ea4435)" d="M16 8.25c1.715 0.001 3.299 0.562 4.579 1.511l-0.021-0.015 4.060-3.789c-2.301-1.992-5.323-3.207-8.629-3.207-5.054 0-9.446 2.838-11.669 7.007l-0.035 0.071 4.433 3.546c1.108-3.009 3.948-5.118 7.282-5.124h0.001z"></path>
<path fill="#2ab2db" style="fill: var(--color4, #2ab2db)" d="M8.718 18.626v0 0 0z"></path>
<path fill="#4285f4" style="fill: var(--color2, #4285f4)" d="M29.25 15v1l-2.25 3.5h-10.5v-5.5h11.75c0.552 0 1 0.448 1 1v0z"></path>
</symbol>
<symbol id="arrow-icon" viewBox="0 0 32 32">
<path stroke-linejoin="round" stroke-linecap="butt" stroke-miterlimit="10" stroke-width="2" d="M31 16l-30-15 6 15-6 15z"></path>
</symbol>
<symbol id="close-icon" viewBox="0 0 32 32">
<path stroke-linejoin="round" stroke-linecap="round" stroke-miterlimit="4" stroke-width="2.5" d="M24 8l-16 16"></path>
<path stroke-linejoin="round" stroke-linecap="round" stroke-miterlimit="4" stroke-width="2.5" d="M8 8l16 16"></path>
</symbol>
<symbol id="delete-icon" viewBox="0 0 32 32">
<path d="M5.333 28.444c0 1.965 1.591 3.556 3.556 3.556h14.222c1.964 0 3.555-1.591 3.555-3.556v-21.333h-21.333v21.333z"></path>
<path d="M22.222 1.778l-1.778-1.778h-8.889l-1.778 1.778h-6.222v3.556h24.889v-3.556z"></path>
</symbol>
<symbol id="edit-icon" viewBox="0 0 32 32">
<path d="M30.667 29.333h-17.333c-0.736 0-1.333-0.597-1.333-1.333s0.597-1.333 1.333-1.333h17.333c0.736 0 1.333 0.597 1.333 1.333s-0.597 1.333-1.333 1.333z"></path>
<path d="M27.024 5.528l-1.885-1.885c-1.008-1.008-2.764-1.007-3.771 0l-2.757 2.757 5.656 5.656 2.757-2.757c0.504-0.503 0.781-1.172 0.781-1.885 0-0.712-0.277-1.381-0.781-1.885z"></path>
<path d="M16.724 8.287l-13.741 13.741c-0.088 0.087-0.149 0.197-0.177 0.319l-1.453 6.167c-0.053 0.224 0.015 0.461 0.177 0.624 0.125 0.127 0.296 0.196 0.471 0.196 0.051 0 0.103-0.005 0.153-0.017l6.167-1.453c0.12-0.028 0.231-0.089 0.319-0.177l13.741-13.741z"></path>
</symbol>
</defs>
</svg>
